<svg width="49" height="49" viewBox="0 0 49 49" fill="none" xmlns="http://www.w3.org/2000/svg">
<g clip-path="url(#clip0)">
<path d="M45.817 29.509C45.671 28.975 45.118 28.662 44.589 28.807L37.644 30.7L32.66 27.852L40.452 25.032C40.848 24.888 41.112 24.511 41.111 24.09C41.11 23.669 40.844 23.292 40.448 23.15L32.667 20.37L37.629 17.518L44.578 19.395C44.665 19.418 44.753 19.43 44.84 19.43C45.28 19.43 45.684 19.136 45.805 18.69C45.949 18.157 45.633 17.608 45.1 17.464L40.082 16.109L44.673 13.47C45.152 13.195 45.318 12.583 45.042 12.105C44.766 11.626 44.157 11.461 43.677 11.736L39.086 14.374L40.441 9.357C40.585 8.824 40.269 8.275 39.736 8.131C39.208 7.988 38.654 8.301 38.509 8.836L36.632 15.785L31.607 18.673L33.073 10.441C33.147 10.026 32.953 9.609 32.587 9.399C32.222 9.19 31.765 9.231 31.441 9.504L25.125 14.868V9.124L30.214 4.035C30.605 3.644 30.605 3.012 30.214 2.621C29.823 2.23 29.191 2.23 28.8 2.621L25.125 6.296V1C25.125 0.448 24.677 0 24.125 0C23.573 0 23.125 0.448 23.125 1V6.296L19.45 2.621C19.059 2.23 18.427 2.23 18.036 2.621C17.645 3.012 17.645 3.644 18.036 4.035L23.125 9.124V14.904L16.747 9.533C16.424 9.262 15.966 9.221 15.601 9.433C15.236 9.644 15.043 10.062 15.119 10.477L16.616 18.682L11.598 15.814L9.704 8.87C9.558 8.337 9.007 8.021 8.476 8.168C7.943 8.313 7.629 8.863 7.774 9.396L9.141 14.41L4.543 11.782C4.064 11.509 3.453 11.675 3.179 12.154C2.905 12.633 3.072 13.244 3.551 13.518L8.148 16.145L3.134 17.512C2.601 17.658 2.287 18.207 2.432 18.74C2.554 19.185 2.956 19.477 3.396 19.477C3.483 19.477 3.571 19.465 3.66 19.441L10.604 17.548L15.588 20.396L7.799 23.216C7.403 23.36 7.138 23.737 7.139 24.158C7.14 24.579 7.405 24.956 7.803 25.098L15.584 27.878L10.622 30.73L3.673 28.853C3.137 28.708 2.59 29.024 2.447 29.558C2.303 30.091 2.618 30.64 3.152 30.785L8.17 32.14L3.577 34.78C3.098 35.055 2.933 35.667 3.208 36.145C3.393 36.467 3.73 36.647 4.076 36.647C4.245 36.647 4.416 36.604 4.573 36.514L9.165 33.875L7.81 38.893C7.666 39.426 7.981 39.975 8.515 40.12C8.602 40.143 8.69 40.154 8.776 40.154C9.217 40.154 9.621 39.861 9.741 39.415L11.618 32.467L16.644 29.579L15.178 37.811C15.104 38.227 15.299 38.644 15.664 38.854C15.819 38.943 15.991 38.987 16.162 38.987C16.394 38.987 16.624 38.906 16.809 38.75L23.125 33.385V39.127L18.036 44.217C17.645 44.608 17.645 45.24 18.036 45.631C18.231 45.826 18.487 45.924 18.743 45.924C18.999 45.924 19.255 45.826 19.45 45.631L23.125 41.955V47.251C23.125 47.804 23.573 48.251 24.125 48.251C24.677 48.251 25.125 47.804 25.125 47.251V41.955L28.8 45.63C28.995 45.825 29.251 45.923 29.507 45.923C29.763 45.923 30.019 45.825 30.214 45.63C30.605 45.239 30.605 44.607 30.214 44.216L25.125 39.126V33.346L31.503 38.716C31.827 38.987 32.284 39.026 32.649 38.817C33.013 38.605 33.207 38.187 33.13 37.772L31.634 29.568L36.653 32.436L38.546 39.379C38.667 39.824 39.07 40.116 39.51 40.116C39.598 40.116 39.686 40.105 39.774 40.081C40.307 39.935 40.622 39.386 40.476 38.853L39.109 33.839L43.706 36.466C43.862 36.556 44.033 36.598 44.201 36.598C44.548 36.598 44.886 36.417 45.07 36.094C45.344 35.615 45.177 35.004 44.698 34.73L40.1 32.104L45.115 30.737C45.648 30.591 45.963 30.041 45.817 29.509ZM37.156 24.098L30.382 26.55L26.136 24.123L30.388 21.68L37.156 24.098ZM30.617 12.826L29.345 19.972L25.125 22.397V17.49L30.617 12.826ZM17.586 12.854L23.125 17.519V22.403L18.886 19.98L17.586 12.854ZM11.094 24.152L17.867 21.7L22.114 24.127L17.862 26.57L11.094 24.152ZM17.633 35.424L18.906 28.278L23.125 25.853V30.759L17.633 35.424ZM30.665 35.396L25.125 30.732V25.848L29.365 28.271L30.665 35.396Z" fill="#D77C69"/>
</g>
<defs>
<clipPath id="clip0">
<rect width="48.25" height="48.25" fill="white"/>
</clipPath>
</defs>
</svg>
