<svg width="46" height="46" viewBox="0 0 46 46" fill="none" xmlns="http://www.w3.org/2000/svg">
<g clip-path="url(#clip0)">
<path d="M30.7469 42.1273C28.3226 42.1273 25.987 41.7409 23.797 41.0292C25.2138 38.9013 25.7732 36.2678 25.3321 33.7444C25.2468 33.2555 24.7811 32.9288 24.2926 33.0141C23.8037 33.0994 23.4766 33.5647 23.5622 34.0536C23.9412 36.2228 23.4201 38.4914 22.1328 40.2774L22.0566 40.3834C21.653 40.2139 21.2561 40.0332 20.8648 39.8415L22.111 35.8866C22.495 34.6692 22.0619 33.3324 21.0339 32.5603C18.1621 30.4037 16.1427 27.4557 15.1793 24.1297C15.1692 24.0742 15.1537 24.0202 15.1334 23.9682C14.748 22.5844 14.5441 21.1371 14.5385 19.6547C14.5234 15.6447 11.289 12.3759 7.32814 12.3682C7.32323 12.3682 7.31867 12.3682 7.31376 12.3682C5.38667 12.3682 3.57469 13.1178 2.21054 14.4795C0.842869 15.8447 0.0897217 17.6605 0.0897217 19.5929C0.0897217 23.7306 0.900425 27.747 2.49937 31.5306C2.86542 32.3971 3.27042 33.2415 3.71051 34.0645C3.71648 34.0764 3.72244 34.088 3.72876 34.0996C5.14135 36.7328 6.92841 39.1382 9.06501 41.2748C9.07625 41.2861 9.08748 41.2969 9.09941 41.3075L10.2358 42.3291C10.9812 42.9998 11.94 43.3549 12.9146 43.3549C13.3438 43.3549 13.7762 43.2858 14.1949 43.1444L19.6933 41.2847C20.0453 41.4643 20.4015 41.6349 20.7616 41.797C19.3887 42.971 17.7108 43.7698 15.9227 44.0828L15.1586 44.2162C14.6697 44.3018 14.3427 44.7672 14.4283 45.2561C14.5044 45.6923 14.8838 45.9997 15.3123 45.9997C15.3636 45.9997 15.4155 45.9955 15.4678 45.9864L16.2322 45.8527C18.6411 45.4312 20.8809 44.2618 22.6062 42.5369C25.185 43.4486 27.9288 43.9242 30.7466 43.9242C31.2428 43.9242 31.645 43.5216 31.645 43.0257C31.645 42.5295 31.2432 42.1273 30.7469 42.1273ZM19.9548 33.9971C20.3745 34.3126 20.5524 34.8548 20.3973 35.3465L19.2557 38.9698C15.8219 36.9258 12.975 33.9957 11.0321 30.4967C12.3292 29.4421 13.4035 28.1551 14.2061 26.7032C14.3658 27.0721 14.5371 27.4378 14.7224 27.7989C15.9655 30.2166 17.7746 32.3599 19.9548 33.9971ZM3.47994 15.7514C4.50472 14.728 5.86607 14.1654 7.31411 14.1654H7.32464C10.3004 14.171 12.7304 16.6365 12.7416 19.6617C12.7476 21.2371 12.9532 22.7736 13.3526 24.2599C12.7027 26.0368 11.6196 27.609 10.2014 28.8476C8.92393 26.0227 8.21255 22.8894 8.21255 19.5929C8.21255 19.0967 7.81036 18.6945 7.31411 18.6945C6.81786 18.6945 6.41566 19.0967 6.41566 19.5929C6.41566 20.5928 6.47603 21.5828 6.5936 22.5599C4.9771 22.4651 3.38377 22.0355 1.93784 21.3038C1.90486 20.736 1.88661 20.166 1.88661 19.5929C1.88661 18.141 2.45234 16.7768 3.47994 15.7514ZM2.13087 23.3653C3.63822 23.9791 5.25331 24.3231 6.88103 24.3715C7.56539 27.8315 8.99307 31.0835 11.0823 33.9367C9.06817 33.8023 7.07335 33.4552 5.12837 32.9004C4.77811 32.2258 4.45243 31.5362 4.15447 30.8311C3.14056 28.4317 2.46498 25.9322 2.13087 23.3653ZM13.619 41.4426C12.8651 41.6974 12.0292 41.5254 11.4371 40.993L10.3186 39.9875C8.81759 38.484 7.50046 36.8395 6.37601 35.07C8.41505 35.5237 10.4955 35.767 12.5879 35.795C12.8943 36.1376 13.2105 36.4738 13.5379 36.8016C14.7915 38.0552 16.1588 39.154 17.616 40.0904L13.619 41.4426Z" fill="#D77C69"/>
<path d="M39.8448 10.9945C40.016 11.2609 40.3038 11.4055 40.5982 11.4055C40.7642 11.4055 40.9324 11.3595 41.0829 11.2633C41.5002 10.9966 41.6216 10.44 41.3556 10.022C41.3549 10.0206 41.351 10.015 41.3503 10.0136C41.0826 9.597 40.5295 9.47803 40.1122 9.74475C39.6949 10.0115 39.5735 10.5681 39.8395 10.9861C39.8402 10.9875 39.844 10.9934 39.8448 10.9945Z" fill="#D77C69"/>
<path d="M43.6796 14.469C43.5101 14.0675 43.3297 13.6646 43.1434 13.2715C42.931 12.8233 42.3955 12.6321 41.947 12.8441C41.4984 13.0567 41.3072 13.5923 41.5195 14.0408C41.6946 14.4107 41.8648 14.7904 42.0245 15.1684C42.7471 16.8786 43.2967 18.6397 43.675 20.4398C42.0961 19.3437 40.2813 18.599 38.3806 18.2789C37.1884 14.9003 35.2472 11.8045 32.6411 9.198C31.3874 7.94439 30.0201 6.8459 28.563 5.90921L32.56 4.55733C33.3138 4.30219 34.1502 4.47415 34.7419 5.00655L35.8604 6.01204C36.5412 6.69429 37.1929 7.4148 37.7976 8.15461C38.1121 8.53855 38.6778 8.59541 39.0621 8.2813C39.4461 7.9672 39.5029 7.40111 39.1888 7.01682C38.5413 6.22506 37.8432 5.45402 37.114 4.72474C37.1027 4.71351 37.0915 4.70263 37.0796 4.6921L35.9432 3.67047C34.8693 2.70465 33.3524 2.3923 31.9844 2.8552L26.486 4.71491C26.134 4.53522 25.7778 4.36466 25.4177 4.20252C26.7903 3.02858 28.4686 2.2298 30.2563 1.9171L31.0207 1.78339C31.5092 1.69776 31.8363 1.23239 31.751 0.743515C31.6654 0.254987 31.2 -0.0717515 30.7112 0.0135304L29.9468 0.146893C27.5382 0.568389 25.298 1.73812 23.5728 3.46271C20.9939 2.55128 18.2502 2.07574 15.4324 2.07574C14.9361 2.07574 14.5339 2.47793 14.5339 2.97418C14.5339 3.47008 14.9361 3.87262 15.4324 3.87262C17.8877 3.87262 20.252 4.26885 22.4665 4.99813C21.227 7.18036 20.6633 9.64722 20.836 12.1622C20.8683 12.6363 21.2631 12.9992 21.7313 12.9992C21.752 12.9992 21.7727 12.9985 21.7938 12.9971C22.2886 12.963 22.6624 12.5345 22.6283 12.0393C22.4736 9.78339 23.0091 7.57238 24.1743 5.63757C24.56 5.80076 24.9401 5.97483 25.3142 6.15838L24.2427 9.55913C23.7679 11.0661 24.2796 12.7409 25.5163 13.7267C28.1085 15.7924 29.9643 18.5362 30.9151 21.6032C30.9189 21.6176 30.9231 21.6316 30.928 21.6456C31.3892 23.1488 31.6345 24.7288 31.6405 26.3453C31.6556 30.3553 34.8903 33.624 38.8508 33.6318H38.8652C40.7923 33.6318 42.6043 32.8821 43.9688 31.5204C45.3365 30.1556 46.0896 28.3397 46.0896 26.407C46.0896 22.2693 45.2789 18.253 43.6796 14.469ZM26.6362 12.3211C25.9764 11.7954 25.7034 10.9022 25.9564 10.0992L26.9237 7.03015C30.5118 9.16606 33.4591 12.2695 35.4034 15.9788C34.0003 16.7344 32.7979 17.8336 31.9163 19.1563C30.7568 16.5242 28.9641 14.1763 26.6362 12.3211ZM42.6994 30.2486C41.6743 31.2716 40.3129 31.8345 38.8652 31.8345C38.8617 31.8345 38.8579 31.8345 38.8543 31.8345C35.8786 31.8289 33.4486 29.3631 33.4374 26.3379C33.4311 24.6463 33.1896 22.9901 32.7334 21.4077C33.423 19.7965 34.6492 18.4502 36.1762 17.6058C37.3284 20.311 37.9668 23.2856 37.9668 26.4067C37.9668 26.9029 38.369 27.3051 38.8652 27.3051C39.3615 27.3051 39.7637 26.9029 39.7637 26.4067C39.7637 24.2971 39.4959 22.2289 38.9793 20.2401C40.9025 20.7289 42.6854 21.7249 44.1067 23.1203C44.2292 24.2051 44.2927 25.3012 44.2927 26.4067C44.2927 27.8586 43.7266 29.2231 42.6994 30.2486Z" fill="#D77C69"/>
</g>
<defs>
<clipPath id="clip0">
<rect width="46" height="46" fill="white"/>
</clipPath>
</defs>
</svg>
