<svg width="48" height="48" viewBox="0 0 48 48" fill="none" xmlns="http://www.w3.org/2000/svg">
<path d="M24 27.27C24.2466 27.27 24.4884 27.1697 24.6627 26.9953C24.8371 26.821 24.9375 26.5791 24.9375 26.3325C24.9375 26.086 24.8372 25.8441 24.6627 25.6697C24.4884 25.4953 24.2466 25.395 24 25.395C23.7534 25.395 23.5116 25.4953 23.3372 25.6697C23.1628 25.8441 23.0625 26.086 23.0625 26.3325C23.0625 26.5791 23.1627 26.821 23.3372 26.9953C23.5116 27.1697 23.7534 27.27 24 27.27Z" fill="#D77C69"/>
<path d="M24 23.4731C24.2466 23.4731 24.4884 23.3728 24.6627 23.1985C24.8371 23.0241 24.9375 22.7822 24.9375 22.5356C24.9375 22.2891 24.8372 22.0472 24.6627 21.8728C24.4884 21.6985 24.2466 21.5981 24 21.5981C23.7534 21.5981 23.5116 21.6985 23.3372 21.8728C23.1628 22.0472 23.0625 22.2891 23.0625 22.5356C23.0625 22.7831 23.1627 23.0241 23.3372 23.1985C23.5116 23.3728 23.7534 23.4731 24 23.4731Z" fill="#D77C69"/>
<path d="M24 19.6763C24.2466 19.6763 24.4884 19.576 24.6627 19.4016C24.8371 19.2272 24.9375 18.9853 24.9375 18.7388C24.9375 18.4922 24.8372 18.2503 24.6627 18.076C24.4884 17.9016 24.2466 17.8013 24 17.8013C23.7534 17.8013 23.5116 17.9016 23.3372 18.076C23.1628 18.2503 23.0625 18.4922 23.0625 18.7388C23.0625 18.9863 23.1627 19.2272 23.3372 19.4016C23.5116 19.576 23.7534 19.6763 24 19.6763Z" fill="#D77C69"/>
<path d="M47.0625 16.4419C44.6152 16.4419 42.2603 17.2567 40.3515 18.724V11.895C40.3515 11.3772 39.9318 10.9575 39.414 10.9575C35.9944 10.9575 33.0064 12.8363 31.4246 15.6151C30.321 11.7803 27.9117 8.39117 24.5288 6.08033C24.2099 5.86255 23.7902 5.86255 23.4713 6.08033C20.0882 8.39117 17.6789 11.7806 16.5753 15.6155C14.9935 12.8366 12.0058 10.9575 8.586 10.9575C8.06831 10.9575 7.6485 11.3772 7.6485 11.895V18.724C5.73975 17.2567 3.38475 16.4419 0.9375 16.4419C0.419719 16.4419 0 16.8616 0 17.3794V19.7122C0 27.2991 5.59031 33.6048 12.8681 34.7269C11.7553 35.8116 11.0625 37.3252 11.0625 38.9983V41.145C11.0625 41.4806 11.2418 41.7906 11.5329 41.9578C11.6776 42.041 11.8388 42.0825 12 42.0825C12.163 42.0825 12.3263 42.0399 12.472 41.955L14.2053 40.945C15.7699 40.0332 17.5542 39.5512 19.3651 39.5512C20.8562 39.5512 22.2575 38.9698 23.3105 37.9141C23.5698 37.6541 23.7999 37.373 24 37.0748C24.2001 37.373 24.4302 37.6541 24.6894 37.9141C25.7424 38.9698 27.1437 39.5512 28.6348 39.5512C30.4458 39.5512 32.2301 40.0332 33.7946 40.945L35.5279 41.9551C35.6737 42.04 35.8368 42.0826 35.9999 42.0826C36.1612 42.0826 36.3224 42.041 36.467 41.9579C36.758 41.7906 36.9374 41.4807 36.9374 41.1451V38.9983C36.9374 37.3246 36.2439 35.8105 35.1305 34.7255C36.8348 34.4622 38.4888 33.9115 40.0041 33.0951C40.4599 32.8495 40.6303 32.2809 40.3848 31.8251C40.1392 31.3693 39.5706 31.1989 39.1147 31.4444C37.3512 32.3945 35.3723 32.9329 33.3596 33.0166C37.4377 30.6466 40.2173 26.2784 40.3466 21.2622C41.8613 19.6194 43.9179 18.5926 46.1249 18.365V19.7123C46.1249 21.868 45.5982 24.0087 44.6018 25.9029C44.3609 26.3612 44.537 26.9281 44.9951 27.169C45.1343 27.2423 45.2836 27.277 45.4308 27.277C45.7678 27.277 46.0935 27.0948 46.2613 26.7757C47.3988 24.6134 48 22.1709 48 19.7122V17.3794C48 16.8616 47.5802 16.4419 47.0625 16.4419ZM24 8.00623C27.9107 10.9239 30.2265 15.5134 30.2265 20.4108C30.2265 25.3081 27.9107 29.8976 24 32.8152C20.0893 29.8976 17.7735 25.3081 17.7735 20.4108C17.7735 15.5134 20.0893 10.9239 24 8.00623ZM9.5235 12.8923C13.1147 13.3537 15.8985 16.4303 15.8985 20.145L15.9026 20.1451C15.9013 20.2337 15.8985 20.3221 15.8985 20.4109C15.8985 25.2252 17.8947 29.7731 21.3412 33.0255C14.7961 32.8574 9.5235 27.4808 9.5235 20.8959V12.8923ZM1.875 19.7122V18.365C4.08187 18.5924 6.13866 19.6192 7.65328 21.2621C7.78266 26.2788 10.5627 30.6473 14.6413 33.0171C7.55269 32.7272 1.875 26.8708 1.875 19.7122ZM19.3651 37.6762C17.2228 37.6762 15.1122 38.2464 13.2612 39.3249L12.9375 39.5136V38.9983C12.9375 36.741 14.774 34.9045 17.0313 34.9045H22.9458C22.7837 35.5363 22.4558 36.1159 21.983 36.59C21.2843 37.2905 20.3545 37.6762 19.3651 37.6762ZM35.0625 39.5136L34.7388 39.3249C32.8879 38.2464 30.7772 37.6762 28.6349 37.6762C27.6455 37.6762 26.7158 37.2905 26.017 36.59C25.5443 36.1159 25.2164 35.5362 25.0542 34.9045H30.9687C33.226 34.9045 35.0625 36.741 35.0625 38.9983V39.5136ZM38.4765 20.8958C38.4765 27.4807 33.2039 32.8573 26.6587 33.0254C30.1053 29.773 32.1015 25.2251 32.1015 20.4108C32.1015 20.3219 32.0988 20.2335 32.0974 20.1448L32.1015 20.145C32.1015 16.4303 34.8853 13.3537 38.4765 12.8923V20.8958Z" fill="#D77C69"/>
<path d="M42.9375 28.8047C42.6899 28.8047 42.4491 28.9041 42.2747 29.0794C42.0994 29.2537 42 29.4947 42 29.7422C42 29.9887 42.0994 30.2306 42.2747 30.405C42.4491 30.5794 42.69 30.6797 42.9375 30.6797C43.1841 30.6797 43.425 30.5794 43.6002 30.405C43.7746 30.2306 43.8741 29.9887 43.8741 29.7422C43.8741 29.4947 43.7746 29.2537 43.6002 29.0794C43.425 28.9041 43.1841 28.8047 42.9375 28.8047Z" fill="#D77C69"/>
</svg>
