<svg width="45" height="45" viewBox="0 0 45 45" fill="none" xmlns="http://www.w3.org/2000/svg">
<path d="M40.1087 0H4.8913C2.1944 0 0 2.1944 0 4.8913V32.2826C0 34.9795 2.1944 37.1739 4.8913 37.1739H7.82609V44.0217C7.82609 44.4168 8.06396 44.775 8.42986 44.9255C8.55118 44.9766 8.67824 45 8.80435 45C9.05847 45 9.30924 44.9002 9.49601 44.7134L17.0355 37.1739H40.1087C42.8056 37.1739 45 34.9795 45 32.2826V4.8913C45 2.1944 42.8056 0 40.1087 0ZM43.0435 32.2826C43.0435 33.9005 41.7266 35.2174 40.1087 35.2174H16.6304C16.3701 35.2174 16.1217 35.3201 15.9388 35.504L9.78261 41.6602V36.1957C9.78261 35.6545 9.34554 35.2174 8.80435 35.2174H4.8913C3.27345 35.2174 1.95652 33.9005 1.95652 32.2826V4.8913C1.95652 3.27345 3.27345 1.95652 4.8913 1.95652H40.1087C41.7266 1.95652 43.0435 3.27345 43.0435 4.8913V32.2826Z" fill="#D77C69"/>
<path d="M16.6304 17.6088C17.1716 17.6088 17.6087 17.1717 17.6087 16.6305V8.80443C17.6087 8.26324 17.1716 7.82617 16.6304 7.82617C16.0892 7.82617 15.6522 8.26324 15.6522 8.80443V16.6305C15.6522 17.1717 16.0892 17.6088 16.6304 17.6088Z" fill="#D77C69"/>
<path d="M28.3696 17.6088C28.9108 17.6088 29.3478 17.1717 29.3478 16.6305V8.80443C29.3478 8.26324 28.9108 7.82617 28.3696 7.82617C27.8284 7.82617 27.3913 8.26324 27.3913 8.80443V16.6305C27.3913 17.1717 27.8284 17.6088 28.3696 17.6088Z" fill="#D77C69"/>
<path d="M36.1957 19.5654C35.6545 19.5654 35.2174 20.0025 35.2174 20.5437C35.2174 24.3187 32.1446 27.3915 28.3696 27.3915H16.6304C12.8554 27.3915 9.78261 24.3187 9.78261 20.5437C9.78261 20.0025 9.34554 19.5654 8.80435 19.5654C8.26315 19.5654 7.82609 20.0025 7.82609 20.5437C7.82609 25.3987 11.7754 29.348 16.6304 29.348H28.3696C33.2246 29.348 37.1739 25.3987 37.1739 20.5437C37.1739 20.0025 36.7368 19.5654 36.1957 19.5654Z" fill="#D77C69"/>
</svg>
