<svg width="46" height="46" viewBox="0 0 46 46" fill="none" xmlns="http://www.w3.org/2000/svg">
<path d="M7.11735 38.8827C7.46837 39.2335 8.03708 39.2335 8.38801 38.8827L14.1057 33.165C14.4565 32.8142 14.4565 32.2453 14.1057 31.8944C13.7548 31.5437 13.1859 31.5436 12.8351 31.8944L7.11735 37.612C6.76651 37.963 6.76642 38.5318 7.11735 38.8827Z" fill="#D77C69"/>
<path d="M37.6121 7.11713L31.8944 12.8348C31.5436 13.1856 31.5436 13.7545 31.8944 14.1055C32.2454 14.4563 32.8141 14.4562 33.1651 14.1055L38.8827 8.38779C39.2336 8.03695 39.2336 7.46806 38.8827 7.11713C38.5317 6.76629 37.963 6.76629 37.6121 7.11713Z" fill="#D77C69"/>
<path d="M8.38792 7.11755C8.03708 6.7668 7.46819 6.7668 7.11726 7.11755C6.76642 7.46839 6.76642 8.03728 7.11726 8.38821L12.835 14.1059C13.1859 14.4567 13.7547 14.4566 14.1056 14.1059C14.4564 13.755 14.4564 13.1861 14.1056 12.8352L8.38792 7.11755Z" fill="#D77C69"/>
<path d="M38.8827 38.8827C39.2335 38.5319 39.2335 37.963 38.8827 37.6121L33.165 31.8944C32.8141 31.5437 32.2454 31.5437 31.8944 31.8944C31.5435 32.2453 31.5435 32.8141 31.8944 33.1651L37.612 38.8827C37.9631 39.2337 38.5317 39.2336 38.8827 38.8827Z" fill="#D77C69"/>
<path d="M27.327 35.7942L29.3898 40.7742C29.5781 41.2286 30.1011 41.4517 30.5637 41.2604C31.0222 41.0705 31.2398 40.5449 31.0499 40.0865L28.9871 35.1065C28.7971 34.648 28.2717 34.4307 27.8132 34.6203C27.3548 34.8102 27.1371 35.3358 27.327 35.7942Z" fill="#D77C69"/>
<path d="M18.1868 11.3796C18.6453 11.1897 18.863 10.6641 18.673 10.2057L16.6102 5.22569C16.4203 4.76731 15.8946 4.54971 15.4364 4.73946C14.9779 4.92939 14.7603 5.45498 14.9502 5.91336L17.013 10.8934C17.2017 11.3489 17.7254 11.5705 18.1868 11.3796Z" fill="#D77C69"/>
<path d="M10.2056 27.3269L5.2256 29.3897C4.76713 29.5796 4.54944 30.1052 4.73936 30.5636C4.92813 31.0191 5.45174 31.2407 5.91317 31.0498L10.8932 28.987C11.3517 28.7971 11.5694 28.2715 11.3794 27.8131C11.1896 27.3548 10.664 27.1371 10.2056 27.3269Z" fill="#D77C69"/>
<path d="M40.7744 16.6105C41.2329 16.4205 41.4505 15.895 41.2607 15.4366C41.0707 14.9781 40.5452 14.7608 40.0868 14.9503L35.1067 17.0131C34.6483 17.2031 34.4307 17.7287 34.6205 18.187C34.8088 18.6415 35.3318 18.8646 35.7944 18.6733L40.7744 16.6105Z" fill="#D77C69"/>
<path d="M40.7744 29.39L35.7944 27.3272C35.3359 27.1378 34.8104 27.3551 34.6205 27.8134C34.4306 28.2719 34.6483 28.7974 35.1067 28.9873L40.0867 31.0502C40.5498 31.2416 41.0725 31.0181 41.2606 30.5639C41.4505 30.1055 41.2328 29.5799 40.7744 29.39Z" fill="#D77C69"/>
<path d="M4.73935 15.4361C4.54942 15.8945 4.7672 16.42 5.22559 16.61L10.2056 18.6728C10.6676 18.8639 11.1909 18.6417 11.3794 18.1865C11.5694 17.7281 11.3516 17.2026 10.8932 17.0126L5.91316 14.9498C5.45496 14.7603 4.92928 14.9777 4.73935 15.4361Z" fill="#D77C69"/>
<path d="M16.6102 40.7746L18.673 35.7946C18.863 35.3361 18.6452 34.8106 18.1868 34.6207C17.7284 34.4312 17.2029 34.6486 17.013 35.1069L14.9502 40.0869C14.7602 40.5454 14.978 41.0709 15.4364 41.2608C15.8983 41.4519 16.4216 41.2298 16.6102 40.7746Z" fill="#D77C69"/>
<path d="M27.327 10.2056C27.1371 10.664 27.3548 11.1895 27.8132 11.3795C28.2762 11.5709 28.799 11.3474 28.9871 10.8932L31.0499 5.9132C31.2397 5.45472 31.022 4.92923 30.5637 4.7393C30.1052 4.54991 29.5798 4.76724 29.3898 5.22553L27.327 10.2056Z" fill="#D77C69"/>
<path d="M23.8984 45.1016V36.4766C23.8984 35.9804 23.4961 35.5781 23 35.5781C22.5039 35.5781 22.1016 35.9804 22.1016 36.4766V45.1016C22.1016 45.5977 22.5039 46 23 46C23.4961 46 23.8984 45.5977 23.8984 45.1016Z" fill="#D77C69"/>
<path d="M23.8984 9.52344V0.898438C23.8984 0.40232 23.4961 0 23 0C22.5039 0 22.1016 0.40232 22.1016 0.898438V9.52344C22.1016 10.0196 22.5039 10.4219 23 10.4219C23.4961 10.4219 23.8984 10.0196 23.8984 9.52344Z" fill="#D77C69"/>
<path d="M0 23C0 23.4961 0.402231 23.8984 0.898438 23.8984H9.52344C10.0196 23.8984 10.4219 23.4961 10.4219 23C10.4219 22.5039 10.0196 22.1016 9.52344 22.1016H0.898438C0.402231 22.1016 0 22.5039 0 23Z" fill="#D77C69"/>
<path d="M45.1016 22.1016H36.4766C35.9804 22.1016 35.5781 22.5039 35.5781 23C35.5781 23.4961 35.9804 23.8984 36.4766 23.8984H45.1016C45.5977 23.8984 46 23.4961 46 23C46 22.5039 45.5977 22.1016 45.1016 22.1016Z" fill="#D77C69"/>
<path d="M28.75 29.6484C29.2462 29.6484 29.6484 29.2462 29.6484 28.75C29.6484 28.2538 29.2462 27.8516 28.75 27.8516C28.2538 27.8516 27.8516 28.2538 27.8516 28.75C27.8516 29.2462 28.2538 29.6484 28.75 29.6484Z" fill="#D77C69"/>
<path d="M23 31.9844C23.8488 31.9844 24.6892 31.866 25.4977 31.6325C25.9745 31.4948 26.2492 30.9967 26.1116 30.5199C25.9739 30.0432 25.4756 29.7686 24.999 29.9061C24.3527 30.0928 23.6801 30.1875 23 30.1875C19.0368 30.1875 15.8125 26.9632 15.8125 23C15.8125 19.0368 19.0368 15.8125 23 15.8125C26.9632 15.8125 30.1875 19.0368 30.1875 23C30.1875 23.6801 30.0928 24.3527 29.9061 24.999C29.7685 25.4758 30.0432 25.9739 30.5199 26.1116C30.9969 26.249 31.4948 25.9744 31.6325 25.4977C31.866 24.6892 31.9844 23.8488 31.9844 23C31.9844 18.0459 27.9541 14.0156 23 14.0156C18.046 14.0156 14.0156 18.0459 14.0156 23C14.0156 27.9541 18.046 31.9844 23 31.9844Z" fill="#D77C69"/>
</svg>
