<svg width="188" height="70" viewBox="0 0 188 70" fill="none" xmlns="http://www.w3.org/2000/svg">
<g clip-path="url(#clip0)">
<path d="M0 29.3101H8.4359V31.0342H1.72161V34.9997H7.91941V36.7238H1.72161V40.8618H8.78022V42.5859H0V29.3101Z" fill="#3A4561"/>
<path d="M29.956 29.3101H34.6044C35.4652 29.3101 36.1538 29.4825 36.6703 29.6549C37.1868 29.8273 37.7033 30.1721 38.0476 30.517C38.3919 30.8618 38.5641 31.2066 38.7363 31.7239C38.9084 32.2411 38.9084 32.5859 38.9084 32.9307C38.9084 33.2756 38.9084 33.7928 38.7363 34.1376C38.5641 34.6549 38.3919 34.9997 38.0476 35.3445C37.7033 35.6894 37.359 36.0342 36.6703 36.2066C36.1538 36.379 35.4652 36.5514 34.6044 36.5514H31.6777V42.4135H29.956V29.3101ZM31.6777 34.9997H34.0879C34.4322 34.9997 34.7766 34.9997 35.1209 34.9997C35.4652 34.9997 35.8095 34.8273 35.9817 34.6549C36.326 34.4825 36.4982 34.3101 36.6703 33.9652C36.8425 33.6204 36.8425 33.2756 36.8425 32.9307C36.8425 32.4135 36.8425 32.0687 36.6703 31.8963C36.4982 31.5514 36.326 31.379 35.9817 31.2066C35.6374 31.0342 35.4652 31.0342 35.1209 30.8618C34.7766 30.8618 34.4322 30.8618 34.0879 30.8618H31.6777V34.9997Z" fill="#3A4561"/>
<path d="M59.5678 29.3101H61.2894V42.4135H59.5678V29.3101Z" fill="#3A4561"/>
<path d="M83.326 29.3101H85.0476V40.8618H91.0732V42.5859H83.326V29.3101Z" fill="#3A4561"/>
<path d="M111.388 29.3101H113.971L118.103 39.3101L122.234 29.3101H124.817V42.4135H123.095V31.5514L118.791 42.4135H117.586L113.11 31.5514V42.4135H111.388V29.3101Z" fill="#3A4561"/>
<path d="M146.853 29.3101H155.289V31.0342H148.575V34.9997H154.945V36.7238H148.747V40.8618H155.806V42.5859H147.026V29.3101H146.853Z" fill="#3A4561"/>
<path d="M176.465 29.3101H181.114C181.974 29.3101 182.835 29.4825 183.524 29.6549C184.212 29.8273 184.901 30.1721 185.418 30.517C185.934 30.8618 186.278 31.2066 186.623 31.7239C186.967 32.2411 187.311 32.5859 187.484 33.1032C187.656 33.6204 187.828 34.1376 187.828 34.4825C188 34.9997 188 35.3445 188 35.8618C188 36.7239 187.828 37.5859 187.484 38.2756C187.139 38.9652 186.795 39.8273 186.106 40.3445C185.418 41.0342 184.729 41.379 183.868 41.8963C183.007 42.4135 181.974 42.4135 180.769 42.4135H176.465V29.3101ZM178.359 40.6894H180.597C181.286 40.6894 182.147 40.517 182.663 40.3445C183.352 40.1721 183.868 39.8273 184.385 39.4825C184.901 39.1376 185.245 38.6204 185.59 37.9307C185.934 37.2411 186.106 36.5514 186.106 35.8618C186.106 35.517 186.106 34.9997 185.934 34.3101C185.762 33.6204 185.59 33.2756 185.245 32.7583C184.901 32.2411 184.385 31.8963 183.696 31.379C183.007 30.8618 182.147 30.8618 181.114 30.8618H178.359V40.6894Z" fill="#3A4561"/>
<path d="M58.8791 19.3105H57.674C57.674 19.6554 57.5018 19.8278 57.5018 20.0002H58.8791V19.3105Z" fill="#3A4561"/>
<path d="M34.0879 19.4828C34.0879 15.1724 34.0879 11.3793 34.2601 8.27586C34.4322 5 34.4322 2.93103 34.6044 1.89655C35.2931 1.72414 36.326 1.72414 37.7033 1.55172C39.0806 1.37931 40.63 1.37931 42.0073 1.37931C46.3114 1.37931 49.9268 1.55172 52.8535 1.89655C55.7802 2.24138 57.8462 2.75862 59.0513 3.27586C63.6996 5.51724 68.5202 10 73.8572 16.5517L74.8901 16.0345L68.0037 0H14.4615V1.03448C16.1832 1.37931 17.5604 1.55172 18.7656 1.89655C19.7985 2.24138 20.8315 2.93103 21.8645 3.96552C22.2088 4.31035 22.5531 5 22.7253 5.86207C22.8974 6.72414 23.0696 7.75862 23.2418 8.7931C23.4139 9.82759 23.4139 11.0345 23.4139 12.2414C23.4139 13.4483 23.4139 14.6552 23.4139 15.8621V20.1724H34.0879C34.0879 19.8276 34.0879 19.6552 34.0879 19.4828Z" fill="#3A4561"/>
<path d="M57.674 49.8277H58.8791V49.4829H57.674C57.674 49.6553 57.674 49.8277 57.674 49.8277Z" fill="#3A4561"/>
<path d="M23.2418 51.207C23.2418 52.7588 23.2418 53.9657 23.2418 54.8277C23.2418 55.8622 23.2418 56.8967 23.0696 57.9312C23.0696 58.9657 22.8974 60.0002 22.7253 61.0346C22.5531 62.0691 22.381 62.9312 22.2088 63.6208C22.0366 64.3105 21.6923 65.0002 21.348 65.345C20.4872 66.3795 19.2821 67.2415 17.9048 67.7588C16.5275 68.276 14.978 68.7933 13.4286 68.9657V70.0001H72.8242L77.6447 51.3795L76.6117 51.0346C75.0623 53.7933 73.3407 56.207 71.9634 58.1036C70.4139 60.0002 68.8645 61.7243 67.315 63.1036C65.7656 64.4829 64.044 65.5174 62.3223 66.2071C60.6007 66.8967 58.707 67.4139 56.641 67.7588C54.7473 68.1036 53.0256 68.1036 51.304 68.276C49.5824 68.276 48.2051 68.4484 47 68.4484C44.4176 68.4484 42.0073 68.276 39.7692 67.9312C37.5311 67.5864 36.1538 66.8967 35.6374 66.0346C35.1209 65.1726 34.6044 63.7933 34.6044 61.8967C34.6044 60.0002 34.2601 58.1036 34.2601 56.0346C34.2601 55.345 34.2601 54.6553 34.2601 53.6208C34.2601 52.7588 34.2601 51.7243 34.2601 50.6898C34.2601 50.345 34.2601 50.0002 34.2601 49.4829H23.5861C23.4139 50.1726 23.4139 50.6898 23.2418 51.207Z" fill="#3A4561"/>
<path d="M127.055 52.9307L125.506 49.4825H113.799C114.487 51.0342 115.176 52.4135 115.692 53.9652C117.758 58.6204 119.824 63.448 121.89 68.2756H122.407C122.579 67.9307 122.923 67.0687 123.44 65.8618C123.956 64.6549 124.473 63.2756 125.161 61.8963C125.678 60.517 126.366 58.9652 126.883 57.5859C127.399 56.2066 127.916 55.1721 128.26 54.4825C129.121 52.7583 129.81 51.0342 130.498 49.3101H128.432C128.088 50.6894 127.571 51.7239 127.055 52.9307Z" fill="#3A4561"/>
<path d="M91.9341 57.5864C91.5898 59.8277 90.9011 61.8967 90.0403 63.4484C89.1795 65.0002 88.1465 66.2071 86.5971 67.0691C85.2198 67.9312 83.326 68.6208 81.0879 69.1381V70.1726H106.396V69.1381C103.641 68.7933 101.403 68.1036 99.8535 67.2415C98.304 66.3795 97.0989 65.1726 96.2381 63.6208C95.3773 62.0691 95.033 60.1726 94.8608 57.9312C94.6887 55.6898 94.5165 53.1036 94.5165 50.0002C94.5165 49.8277 94.5165 49.6553 94.5165 49.4829H92.4506C92.4506 52.7588 92.2784 55.345 91.9341 57.5864Z" fill="#3A4561"/>
<path d="M150.469 56.5519C150.469 57.9312 150.297 59.1381 150.125 60.345C149.952 61.5519 149.608 62.5864 149.264 63.4484C148.575 64.8277 147.37 66.0346 145.476 67.0691C143.582 68.1036 141.344 68.6208 138.418 68.7933V69.8277H171.817V68.7933C170.267 68.7933 168.89 68.4484 167.685 68.1036C166.48 67.7588 165.619 67.2415 164.758 66.7243C163.897 66.2071 163.381 65.6898 163.037 65.1726C162.692 64.6553 162.348 64.3105 162.348 64.3105C162.004 63.6208 161.659 62.5864 161.487 61.3795C161.315 60.1726 161.315 58.7933 161.315 57.5864C161.315 54.8277 161.315 52.0691 161.315 49.4829H150.813C150.641 51.8967 150.641 54.1381 150.469 56.5519Z" fill="#3A4561"/>
<path d="M144.788 17.931C146.509 13.9655 148.575 9.48276 150.641 4.65517V19.8276H161.143C161.143 19.3103 161.143 18.7931 161.143 18.2759C161.143 16.0345 161.315 13.6207 161.487 11.3793C161.659 8.96552 161.831 7.24138 162.348 6.2069C162.864 4.82759 163.897 3.62069 165.275 2.58621C166.652 1.55172 168.718 1.03448 171.3 0.862069V0H150.641C150.469 0.517241 149.608 2.41379 148.231 5.68965C146.853 8.96552 145.132 13.1034 142.894 17.931C142.549 18.6207 142.377 19.3103 142.033 20H144.099C144.271 19.3103 144.615 18.6207 144.788 17.931Z" fill="#3A4561"/>
<path d="M94.6887 17.5862C94.6887 14.3103 94.6887 10.5172 94.6887 6.2069C95.033 6.89655 95.5495 8.27586 96.4103 10.3448C97.2711 12.4138 98.4762 14.8276 99.6813 17.7586C100.026 18.4483 100.37 19.1379 100.714 19.8276H112.593L103.985 0H83.326V1.03448C84.1868 1.2069 85.0476 1.37931 86.0806 1.72414C87.1136 2.06897 88.1465 2.41379 89.1795 3.10345C90.2125 3.7931 91.0733 4.65517 91.7619 5.86207C92.4506 7.06897 92.7949 8.44828 92.967 10.3448C92.967 12.069 92.967 13.6207 92.967 14.8276C92.967 16.2069 92.967 17.4138 92.967 18.6207C92.967 19.1379 92.967 19.4828 92.967 20H94.6887C94.6887 19.3103 94.6887 18.4483 94.6887 17.5862Z" fill="#3A4561"/>
</g>
<defs>
<clipPath id="clip0">
<rect width="188" height="70" fill="white"/>
</clipPath>
</defs>
</svg>
