<svg width="55" height="63" fill="none" xmlns="http://www.w3.org/2000/svg"><g clip-path="url(#clip0)" fill="#3A4561"><path d="M55 35.553s-5.516-4.093-14.79 1.926c-6.395 4.173-9.512 4.654-15.508 6.26-5.916 1.685-13.27 4.414-13.27 4.414s6.555-1.525 12.07-2.89c5.757-1.444 12.951-2.166 16.15-4.494 4.876-3.45 7.754-6.741 15.348-5.216z"/><path d="M4.397 16.05S.16 34.029 0 45.907c-.16 8.908 1.359 11.636 5.756 12.52 4.477.882 19.586.561 41.01-6.822 0 0-15.749 4.012-26.46 5.297-10.713 1.283-18.387.882-19.027-5.217C.24 42.134 4.397 16.05 4.397 16.05zM5.836 12.038c6.395-4.815 5.835-5.297 7.994-7.785 1.759-2.086 3.517-5.457 5.836-3.852 3.677 2.649 8.713 4.173 6.075 5.859 0 0 .8-1.044-.72-1.926-1.518-.963-4.316-2.569-5.595-3.451-1.2-.803-2.718.882-3.757 2.247-3.278 4.414-6.316 6.821-9.833 8.908z"/><path d="M20.705 2.327s2.798 2.167 3.917 3.13c1.12.963 1.36 2.167.56 2.97 0 0 .32-1.285-.56-2.167l-3.917-3.933zM19.985 3.45s2.559 2.408 3.678 3.532c.96.963 2.158 2.327-.16 3.692 0 0 1.439-1.365.48-2.649-1.12-1.204-2.958-3.05-3.998-4.574zM20.305 6.5s1.04 1.445 1.759 2.408c.72.963 1.599 2.649.24 3.451-1.36.803-2.319 1.204-2.878.883-.64-.321-1.04-.963-1.04-.963s.96.802 2 .481c1.038-.24 2.317-.882 2.158-1.845-.16-1.044-1.84-3.451-2.239-4.415z"/><path d="M18.706 10.995s-3.117 6.019-8.953 5.778c0 0-1.36 9.871 0 17.415 1.359 7.624 2.718 13.242-.4 15.008 0 0 1.839-2.247-.08-9.871-1.918-7.625-1.679-18.299.08-23.836 0 .08 4.957.562 9.353-4.494zM43.009 51.042s9.513 3.13 8.314 11.958c.08 0 5.356-9.47-8.314-11.958z"/></g><defs><clipPath id="clip0"><path fill="#fff" d="M0 0h55v63H0z"/></clipPath></defs></svg>