<svg width="58" height="65" fill="none" xmlns="http://www.w3.org/2000/svg"><path d="M51.461 51.114c11.867-23.462 4.844-26.574-.726-33.996-5.57-7.422-1.332-15.682-1.332-15.682-8.234 14.964 4.601 15.802 5.933 28.131C56.547 42.017 48.192 49.32 44.681 65c0 0 .726-1.915 6.78-13.886zm-11.14-36.989c-.12.36-1.331 3.232-6.901 1.676-5.934-1.676-6.176-5.865-17.558-6.703C4.36 8.379 0 0 0 0s2.543 7.661 10.655 9.576c8.113 1.796 11.746.958 15.257 4.55 4.36 4.309 12.835 5.266 14.41 0zM6.54 20.83s13.803 4.549 12.108 17.118c0-.12 6.418-12.33-12.108-17.118zm3.995 33.398c-10.292-12.33 5.45-22.864 5.45-22.864-18.89 10.294-7.992 23.582-7.992 23.582l2.542-.718zm29.788-19.393c-4.239 12.09-11.504 13.647-11.504 13.647 10.898-1.437 11.503-13.647 11.503-13.647z" fill="#D77C69"/></svg>