<svg width="57" height="56" fill="none" xmlns="http://www.w3.org/2000/svg"><g clip-path="url(#clip0)" fill="#3A4561"><path d="M20.308 14.153C21.615 11.934 22.692 7.038 21.923 0 21.923 0 22 15.836 11 16.754c.077 0 6.692 1.836 9.308-2.601zM13.077 26.776s5.385 2.372 6.538 7.574l.924-2.219s-2.078-3.596-7.462-5.355zM35.923 0S34.385 10.328 36 12.01c1.692 1.684 4.154 1.149 9.154.766s8.307-.46 11.846 3.596c0 0-2.538-2.525-7.308-2.831-5.077-.383-12.154 2.066-14.769.995-3.77-1.607 1-14.536 1-14.536z"/><path d="M21.308 29.683s-2 5.661.846 10.252c2.461 3.978 9.23 5.355 12.615 2.371 0 0-3.615 4.973-9.615 2.754-7.308-2.6-5.616-11.016-5.616-11.016s.385-2.219 1.77-4.36zM19.308 56S16.692 38.558 8.615 31.672C4.231 28 0 28.69 0 28.69s4.462-2.678 10.615 2.754C20.154 39.858 19.308 56 19.308 56zM49.23 43.071s.385 6.044-1.307 13.006c0 0 2.308-4.59 3.154-13.618l-1.846.612z"/><path d="M50.923 21.727s.308 1.606-.538 3.672c-.923 1.989-1.616 2.83 1.154 5.737 3 3.137 3.538 7.957.461 10.175-2.538 1.836-7 1.3-8.385.612 0 0 3.462 3.213 8.154 1.148 5.154-2.295 3.616-9.104.693-12.317-2.231-2.448-1.77-2.219-1.154-4.208.692-2.065.154-4.054-.385-4.82z"/></g><defs><clipPath id="clip0"><path fill="#fff" d="M0 0h57v56H0z"/></clipPath></defs></svg>