<svg width="49" height="56" fill="none" xmlns="http://www.w3.org/2000/svg"><path d="M16.203.153s4.675 6.35-.623 13.54C10.283 20.963-4.83 36.11 1.558 56c0 0-2.96-12.011 2.415-22.186s9.816-12.852 14.568-18.973c4.596-6.12.155-11.934-2.338-14.688zM23.448 38.863s5.22 4.897 5.22 17.137c0 0-1.87-12.011-5.22-17.137z" fill="#3A4561"/><path d="M37.626 42.612s-2.57 5.814-9.893 7.42l.467 1.837s6.7-1.76 9.426-9.257zM48.844.153s0 5.432-2.415 10.404c-1.714 3.52-.467 6.656-1.168 12.317-.623 5.661-2.883 12.011-6.388 16.678 0 0 4.908-4.82 6.7-13.924 1.557-8.109 0-10.098 1.557-13.77C49.312 6.579 49.078 2.6 48.844.153zM45.806 26.852s.935 5.28-1.246 11.476C42.378 44.678 47.91 56 47.91 56s-3.74-5.05-4.908-10.48c-1.091-5.356.233-7.192 1.246-9.87.935-2.677 1.558-4.513 1.558-8.797zM43.625 0s.935 5.355-1.558 10.863c-2.493 5.509-1.013 8.11-1.013 8.11s-.234-4.208 1.246-6.962C43.937 8.798 44.95 5.585 43.626 0z" fill="#3A4561"/></svg>