<svg width="57" height="64" viewBox="0 0 57 64" fill="none" xmlns="http://www.w3.org/2000/svg">
<g filter="url(#filter0_d)">
<path d="M20.2035 0.152832C20.2035 0.152832 24.8776 6.50256 19.5803 13.6938C14.283 20.9616 -0.82989 36.1091 5.55803 55.9998C5.55803 55.9998 2.59777 43.9889 7.97297 33.814C13.3482 23.6392 17.7886 20.9616 22.5405 14.8414C27.1367 8.72114 22.6963 2.90693 20.2035 0.152832Z" fill="#D77C69"/>
<path d="M27.4483 38.8633C27.4483 38.8633 32.6677 43.7595 32.6677 55.9999C32.6677 55.9999 30.7981 43.989 27.4483 38.8633Z" fill="#D77C69"/>
<path d="M41.6264 42.6118C41.6264 42.6118 39.0556 48.426 31.7329 50.0326L32.2003 51.8686C32.2003 51.8686 38.8998 50.1091 41.6264 42.6118Z" fill="#D77C69"/>
<path d="M52.8442 0.152832C52.8442 0.152832 52.8442 5.58453 50.4292 10.5572C48.7154 14.0763 49.9618 17.2129 49.2607 22.8741C48.6375 28.5353 46.3784 34.8851 42.8728 39.5517C42.8728 39.5517 47.7806 34.7321 49.5723 25.6282C51.1303 17.519 49.5723 15.5299 51.1303 11.8578C53.3116 6.57906 53.0779 2.60092 52.8442 0.152832Z" fill="#D77C69"/>
<path d="M49.806 26.8525C49.806 26.8525 50.7408 32.1312 48.5596 38.3279C46.3784 44.6777 51.9094 56.0001 51.9094 56.0001C51.9094 56.0001 48.1701 50.9509 47.0016 45.5192C45.911 40.164 47.2353 38.3279 48.248 35.6504C49.1828 32.9728 49.806 31.1367 49.806 26.8525Z" fill="#D77C69"/>
<path d="M47.6248 0C47.6248 0 48.5596 5.35519 46.0668 10.8634C43.5739 16.3716 45.054 18.9727 45.054 18.9727C45.054 18.9727 44.8203 14.765 46.3005 12.0109C47.9364 8.79781 48.9491 5.5847 47.6248 0Z" fill="#D77C69"/>
</g>
<defs>
<filter id="filter0_d" x="0" y="0" width="57" height="64" filterUnits="userSpaceOnUse" color-interpolation-filters="sRGB">
<feFlood flood-opacity="0" result="BackgroundImageFix"/>
<feColorMatrix in="SourceAlpha" type="matrix" values="0 0 0 0 0 0 0 0 0 0 0 0 0 0 0 0 0 0 127 0"/>
<feOffset dy="4"/>
<feGaussianBlur stdDeviation="2"/>
<feColorMatrix type="matrix" values="0 0 0 0 0 0 0 0 0 0 0 0 0 0 0 0 0 0 0.25 0"/>
<feBlend mode="normal" in2="BackgroundImageFix" result="effect1_dropShadow"/>
<feBlend mode="normal" in="SourceGraphic" in2="effect1_dropShadow" result="shape"/>
</filter>
</defs>
</svg>
