<svg width="48" height="51" viewBox="0 0 48 51" fill="none" xmlns="http://www.w3.org/2000/svg">
<g clip-path="url(#clip0)">
<path d="M16.5536 0C16.5536 0 -5.5416 12.0533 1.31555 29.2623C1.31555 29.2623 0.138059 40.4098 1.31555 51C1.31555 51 1.8004 34 4.22464 29.332C4.22464 29.332 -4.01779 15.7459 16.5536 0Z" fill="#3A4561"/>
<path d="M12.329 14.2129C12.329 14.2129 7.27273 26.3358 19.4632 32.5367C19.4632 32.5367 21.4026 43.1965 23.4113 50.9998C23.4113 50.9998 22.026 37.135 22.8571 32.1883C22.8571 32.1883 9.69697 28.008 12.329 14.2129Z" fill="#3A4561"/>
<path d="M14.1991 27.2417C14.1991 27.2417 12.5368 29.4712 7.96537 29.4015C7.96537 29.4015 11.7056 30.7253 15.4459 28.7048L14.1991 27.2417Z" fill="#3A4561"/>
<path d="M20.4329 44.3115C20.4329 44.3115 20.1558 47.377 18.7013 51.0697C18.7013 51.0697 19.8095 44.7295 19.5325 40.4795L20.4329 44.3115Z" fill="#3A4561"/>
<path d="M45.7835 2.29932C45.7835 2.29932 46.1299 9.26653 42.8052 14.701C42.8052 14.701 46.961 37.1354 48 51.0001C48 51.0001 43.1515 21.1805 39.4113 14.3526C39.4113 14.3526 44.329 11.9837 45.7835 2.29932Z" fill="#3A4561"/>
</g>
<defs>
<clipPath id="clip0">
<rect width="48" height="51" fill="white"/>
</clipPath>
</defs>
</svg>
