<svg width="48" height="51" fill="none" xmlns="http://www.w3.org/2000/svg"><g clip-path="url(#clip0)" fill="#3A4561"><path d="M16.554 0S-5.542 12.053 1.316 29.262c0 0-1.178 11.148 0 21.738 0 0 .484-17 2.909-21.668 0 0-8.243-13.586 12.329-29.332z"/><path d="M12.329 14.213s-5.056 12.123 7.134 18.324c0 0 1.94 10.66 3.948 18.463 0 0-1.385-13.865-.554-18.812 0 0-13.16-4.18-10.528-17.975z"/><path d="M14.2 27.242s-1.663 2.23-6.235 2.16c0 0 3.74 1.323 7.48-.697L14.2 27.242zM20.433 44.312s-.277 3.065-1.732 6.758c0 0 1.108-6.34.831-10.59l.9 3.832zM45.783 2.3s.347 6.967-2.978 12.401c0 0 4.156 22.434 5.195 36.3 0 0-4.849-29.82-8.589-36.648 0 0 4.918-2.37 6.372-12.054z"/></g><defs><clipPath id="clip0"><path fill="#fff" d="M0 0h48v51H0z"/></clipPath></defs></svg>