<svg width="44" height="60" fill="none" xmlns="http://www.w3.org/2000/svg"><path d="M14.482 34.642s-.572 11.035-4.964 17.08C5.794 56.904.065 59.207.065 59.207s9.07-2.59 12.221-9.116c3.629-7.58 2.196-15.45 2.196-15.45zM26.99 47.02s2.482.48 6.397-.288c4.01-.863 10.598-.863 10.312 10.748 0 0-.478-7.485-4.679-9.404-4.392-2.015-9.166 1.055-12.03-1.056zM9.327 59.111s6.683-.384 10.216-1.727c3.532-1.248 6.874 1.151 6.874 1.151s-2.96-.96-5.538-.383c-2.673.671-8.402 1.631-11.552.96z" fill="#3A4561"/><path d="M28.327 57.48s-.382-1.92 1.623-3.07c2.482-1.44 3.341-3.84 3.341-3.84s0 1.824-1.432 3.263c-1.24 1.248-3.055 1.728-3.532 3.647zM35.392 7.869s0 .096 0 0c0 .096 0 .096 0 0zM28.327.959c6.397-.48 9.834 2.304 7.638 7.39 0 0 3.246-4.03.573-6.718-2.865-2.878-13.08-2.878-22.246 6.334.095 0 7.733-6.43 14.035-7.005zm-7.83 5.087C35.584.288 35.392 7.197 35.392 7.869c.286-11.132-14.895-1.823-14.895-1.823zm13.367 2.207c7.066 3.166 3.724 9.692 4.488 13.338.668 3.55 4.965 5.566 4.965 5.566-5.92-4.894-3.342-7.101-4.01-12.283-.764-5.662-5.443-6.621-5.443-6.621zm2.865 24.565c3.437.384 2.387 2.207 2.387 2.207 1.91-2.303-1.433-2.399-1.433-2.399s1.433-.288 2.292-.863c1.623-1.056.286-2.4.286-2.4 2.578-.48 2.77-1.918 2.77-1.918-1.529 1.535-3.533 1.535-3.533 1.535 2.482 2.207-2.77 3.838-2.77 3.838zm-11.935-5.182c5.06-2.015 2.005-8.156 2.005-8.156s1.146 3.742-.286 5.566c-1.91 2.495-6.588 2.686-7.734 6.909-1.337 4.99 4.2 7.964 4.2 7.964-5.632-4.702-3.245-10.267 1.815-12.283zm14.894 10.172c0-1.151-.572-2.399-.572-2.399s.668 2.783-1.05 3.359c-3.247 1.055-13.654-1.152-15.945-7.197 0 0 0 2.207 2.673 4.318 0 0 1.623 1.44 4.487 2.495-1.05.384-2.1 1.535-3.055 4.414-1.336 3.934-1.527 9.116-1.527 9.116 1.909-9.5 2.864-10.843 5.25-12.187.67-.383 1.433-.48 2.197-.575 3.341.671 5.346.767 6.397.288 1.145-.384 1.145-1.248 1.145-1.632zM34.724 9.596C27.658 22.359 9.995 21.303 9.995 21.303 32.145 23.99 34.724 9.596 34.724 9.596zm-30.267 9.98C5.7 11.61 15.628 5.758 15.628 5.758S5.221 10.364 3.598 19.576c-2.291 12.762 8.784 15.641 8.784 15.641C9.9 34.354 3.12 28.5 4.457 19.576z" fill="#3A4561"/></svg>