<svg width="60" height="51" fill="none" xmlns="http://www.w3.org/2000/svg"><g clip-path="url(#clip0)" fill="#D77C69"><path d="M16.622 2.056S9.272-6.301 4.636 10.61C.662 25.533 0 34.75 0 34.75S4.172 14.723 5.762 10.28C7.285 5.902 9.934-.929 16.622 2.056zM17.483 3.647s3.245 7.495 6.16 17.575c2.913 10.08 4.04 13.53 5.364 17.509 1.788 5.504 1.655 9.152 1.655 9.152s-1.06-4.775-2.185-7.959c-1.523-4.178-4.305-13.86-5.695-18.105-1.987-6.035-5.299-18.172-5.299-18.172z"/><path d="M14.04 7.295s-5.232 8.29.927 15.519c5.232 6.168 7.947 8.754 6.357 13.662 0 0 1.524-2.653.464-5.505-1.126-2.852-6.887-9.815-7.88-13.728-1.458-5.372.132-9.948.132-9.948zM20.927 37.006s-3.444 3.913-.86 5.903c2.383 1.79 5.695.133 6.82 3.25 1.126 3.117 1.722 5.04 5.43 4.84 4.107-.198 2.385-1.989 1.127-2.453 0 0 1.457.862.728 1.592-.596.597-3.245.995-4.834-.332-1.92-1.525-1.457-4.576-3.444-5.703-1.523-.863-4.768-.73-5.63-2.852-.86-2.056.663-4.245.663-4.245zM22.053 9.55s4.967-4.908 9.867 3.714c4.967 8.622 13.71 21.753 17.749 25.467 4.04 3.714 6.358 8.887 6.358 8.887s-4.173-6.3-6.69-8.091c-2.516-1.79-7.88-9.816-10.926-14.392-3.113-4.576-7.683-14.524-10.994-15.85-3.311-1.26-5.364.265-5.364.265zM26.49 17.84s-2.185 8.09 6.027 12.136c8.476 4.178 9.933 9.816 9.933 9.816s-.53-5.439-7.417-9.418c-6.954-4.111-8.344-8.422-8.543-12.534z"/><path d="M43.709 39.726s-1.59 1.26-1.722 3.382c-.133 1.857.86 2.984 3.84 3.25 2.981.199 4.372.464 5.63 1.857 1.258 1.392 2.45 2.055 4.768 2.188 2.318.133 4.106 0 3.775-1.127-.199-.664-1.987-.929-1.987-.929s1.656.663 1.656 1.128c-.066.53-1.722.73-3.179.663-1.523-.133-3.51-.73-4.768-2.321-1.258-1.592-2.782-1.857-4.702-1.99-1.854-.133-4.04-.53-4.305-2.785-.33-1.791.994-3.316.994-3.316zM12.715 19.1s7.153 27.523-7.417 30.839c0 0 9.338.331 10.265-13.596.662-9.948-.662-14.59-.662-14.59L12.715 19.1z"/></g><defs><clipPath id="clip0"><path fill="#fff" d="M0 0h60v51H0z"/></clipPath></defs></svg>