<svg width="46" height="59" fill="none" xmlns="http://www.w3.org/2000/svg"><path d="M36.143 15.451s6.407 3.253 8.666 9.19c2.259 5.936.945 9.88-1.314 16.142C41.235 47.045 42.838 59 42.838 59s-2.67-8.905-.165-18.42c2.341-8.986 5.914-16.061-6.53-25.129zM15.854 25.86S2.629 40.663 0 58.879c0 0 .164-7.888 4.846-18.216C9.53 30.334 15.854 25.86 15.854 25.86zM9.446 7.32s.042 11.67 7.352 16.996c0 0-4.148-1.749-6.037-6.425C8.666 12.768 9.446 7.32 9.446 7.32zM28.134 46.558s-.698 6.18 2.218 12.442c0 0-1.766-1.952-2.423-5.855-.658-3.944.205-6.587.205-6.587zM29.654 0s-2.588 9.393 5.75 14.841c0 0-5.422-2.317-6.367-7.237-.862-4.27.617-7.604.617-7.604z" fill="#D77C69"/><path d="M35.938 19.6s6.982 10.612.985 18.947c-5.257 7.279-18.605 8.62-25.3 20.453 0 0 1.315-4.391 7.64-9.474 5.585-4.432 25.833-9.677 16.674-29.927z" fill="#D77C69"/></svg>