<svg width="46" height="59" viewBox="0 0 46 59" fill="none" xmlns="http://www.w3.org/2000/svg">
<path d="M36.1429 15.4512C36.1429 15.4512 42.55 18.7041 44.8089 24.6407C47.0679 30.5773 45.7536 34.5215 43.4946 40.7834C41.2357 47.0452 42.8375 58.9998 42.8375 58.9998C42.8375 58.9998 40.1679 50.0949 42.6732 40.5801C45.0143 31.5938 48.5875 24.5187 36.1429 15.4512Z" fill="#3A4561"/>
<path d="M15.8536 25.8608C15.8536 25.8608 2.62857 40.6617 0 58.8781C0 58.8781 0.164286 50.9897 4.84643 40.6617C9.52857 30.3336 15.8536 25.8608 15.8536 25.8608Z" fill="#3A4561"/>
<path d="M9.44643 7.31934C9.44643 7.31934 9.4875 18.9892 16.7982 24.3159C16.7982 24.3159 12.65 22.5674 10.7607 17.8914C8.66607 12.768 9.44643 7.31934 9.44643 7.31934Z" fill="#3A4561"/>
<path d="M28.1339 46.5576C28.1339 46.5576 27.4357 52.7382 30.3518 59.0001C30.3518 59.0001 28.5857 57.0483 27.9286 53.1448C27.2714 49.2006 28.1339 46.5576 28.1339 46.5576Z" fill="#3A4561"/>
<path d="M29.6536 0C29.6536 0 27.0661 9.39283 35.4036 14.8415C35.4036 14.8415 29.9822 12.5238 29.0375 7.60372C28.175 3.33425 29.6536 0 29.6536 0Z" fill="#3A4561"/>
<path d="M35.9375 19.5991C35.9375 19.5991 42.9197 30.2118 36.9232 38.5474C31.6661 45.8259 18.3179 47.1677 11.6232 59.0002C11.6232 59.0002 12.9375 54.6088 19.2625 49.5261C24.8482 45.094 45.0964 39.8486 35.9375 19.5991Z" fill="#3A4561"/>
</svg>
