<svg width="59" height="57" viewBox="0 0 59 57" fill="none" xmlns="http://www.w3.org/2000/svg">
<path d="M21.4 3.90039C21.4 3.90039 20.8 15.4004 16.2 21.7004C12.3 27.1004 6.3 29.5004 6.3 29.5004C6.3 29.5004 15.8 26.8004 19.1 20.0004C22.9 12.1004 21.4 3.90039 21.4 3.90039Z" fill="#D77C69"/>
<path d="M34.5 16.8001C34.5 16.8001 37.1 17.3001 41.2 16.5001C45.4 15.6001 52.3 15.6002 52 27.7002C52 27.7002 51.5 19.9002 47.1 17.9002C42.5 15.8002 37.5 19.0001 34.5 16.8001Z" fill="#D77C69"/>
<path d="M15.9 29.3002C15.9 29.3002 22.9 28.9002 26.6 27.5002C30.4 26.2002 33.8 28.7002 33.8 28.7002C33.8 28.7002 30.7 27.7002 28 28.3002C25.3 29.0002 19.3 30.1002 15.9 29.3002Z" fill="#D77C69"/>
<path d="M35.9 27.7C35.9 27.7 35.5 25.7 37.6 24.5C40.2 23 41.1 20.5 41.1 20.5C41.1 20.5 41.1 22.4 39.6 23.9C38.2 25.2 36.3 25.7 35.9 27.7Z" fill="#D77C69"/>
<path d="M48.9 28C48.9 28 46.4 32.2 50.5 34.9C54.5 37.7 59.4 43.1 58.5 47.9C57.3 53.8 52.1 55.4 48.6 54.8C48.6 54.8 56.1 54.6 57.1 47.6C58.1 40.5 50.2 35.6 48.5 34.1C46.6 32.3 46.9 30.2 48.9 28Z" fill="#D77C69"/>
<path d="M47.8 7.2002C47.8 6.0002 47.2 4.7002 47.2 4.7002C47.2 4.7002 47.9 7.6002 46.1 8.2002C42.7 9.3002 31.8 7.0002 29.4 0.700195C29.4 0.700195 29.4 3.0002 32.2 5.2002C32.2 5.2002 33.9 6.6002 36.8 7.7002C35.7 8.1002 34.6 9.30019 33.6 12.3002C32.2 16.4002 32 21.8002 32 21.8002C34 11.9002 35 10.5002 37.5 9.10019C38.2 8.70019 39 8.60019 39.8 8.50019C43.3 9.20019 45.4 9.30019 46.5 8.80019C47.7 8.50019 47.8 7.6002 47.8 7.2002Z" fill="#D77C69"/>
<path d="M8.6 29.5998C8.6 29.5998 0 29.1998 0 38.1998C0 47.0998 0.6 56.9998 0.6 56.9998C0.6 56.9998 0.6 42.5998 1.1 37.9998C1.9 30.3998 8.6 29.5998 8.6 29.5998Z" fill="#D77C69"/>
</svg>
