<svg width="59" height="81" fill="none" xmlns="http://www.w3.org/2000/svg"><g clip-path="url(#clip0)" fill="#3A4561"><path d="M21.4 27.9s-.6 11.5-5.2 17.8c-3.9 5.4-9.9 7.8-9.9 7.8s9.5-2.7 12.8-9.5c3.8-7.9 2.3-16.1 2.3-16.1zM34.5 40.8s2.6.5 6.7-.3c4.2-.9 11.1-.9 10.8 11.2 0 0-.5-7.8-4.9-9.8-4.6-2.1-9.6 1.1-12.6-1.1zM15.9 53.3s7-.4 10.7-1.8c3.8-1.3 7.2 1.2 7.2 1.2s-3.1-1-5.8-.4c-2.7.7-8.7 1.8-12.1 1z"/><path d="M35.9 51.7s-.4-2 1.7-3.2c2.6-1.5 3.5-4 3.5-4s0 1.9-1.5 3.4c-1.4 1.3-3.3 1.8-3.7 3.8zM48.9 52s-2.5 4.2 1.6 6.9c4 2.8 8.9 8.2 8 13-1.2 5.9-6.4 7.5-9.9 6.9 0 0 7.5-.2 8.5-7.2 1-7.1-6.9-12-8.6-13.5-1.9-1.8-1.6-3.9.4-6.1zM47.8 31.2c0-1.2-.6-2.5-.6-2.5s.7 2.9-1.1 3.5c-3.4 1.1-14.3-1.2-16.7-7.5 0 0 0 2.3 2.8 4.5 0 0 1.7 1.4 4.6 2.5-1.1.4-2.2 1.6-3.2 4.6-1.4 4.1-1.6 9.5-1.6 9.5 2-9.9 3-11.3 5.5-12.7.7-.4 1.5-.5 2.3-.6 3.5.7 5.6.8 6.7.3 1.2-.3 1.3-1.2 1.3-1.6zM8.6 53.6S0 53.2 0 62.2C0 71.1.6 81 .6 81s0-14.4.5-19c.8-7.6 7.5-8.4 7.5-8.4z"/></g><defs><clipPath id="clip0"><path fill="#fff" d="M0 0h58.6v81H0z"/></clipPath></defs></svg>