<svg width="54" height="62" fill="none" xmlns="http://www.w3.org/2000/svg"><g clip-path="url(#clip0)" fill="#D77C69"><path d="M11.7 0s.9 6.8 1 22.7c0 13-.2 17.8 0 23 .2 7.2-1.1 11.4-1.1 11.4s.4-6 .1-10.2c-.4-5.5.2-17.9 0-23.5-.4-7.9 0-23.4 0-23.4zM4.2 3.1s-7 9.2-2.8 18.7C5.5 31 7.9 35 4.3 40.3c0 0 2.8-2.7 2.4-6.4-.3-3.8-4.1-13.5-4.7-19.2C1.3 8.2 4.2 3.1 4.2 3.1z"/><path d="M3.7 40.8s-5.5 3.5-3 6.7c2.2 2.9 6.7 2.1 7 6.2.3 4.1.3 6.6 4.8 7.6 5 1.2 3.5-1.5 2.2-2.5 0 0 1.4 1.5.3 2.1-.9.5-4.2.1-5.7-2-1.8-2.5-.2-6-2.1-8-1.5-1.6-5.4-2.5-5.7-5.3-.4-2.7 2.2-4.8 2.2-4.8zM38.7 45.3c7.2 5.1 9.5 9.6 9.5 9.6s-6.4-6.8-9.8-8.6C35 44.6 23 30.9 18.7 25.6c-2.7-3.3-4.3-6.7-4.3-6.7s18.7 22.5 24.3 26.4z"/><path d="M31.6 47.6s-1.7 1.9-1.4 4.5c.2 2.3 1.6 3.5 5.3 3.2 3.7-.3 5.4-.3 7.2 1.2 1.8 1.5 3.4 2 6.3 1.8 2.1-.2 3.9-.6 4.4-1.3.2-.2.3-.6 0-.8-.6-.7-2.7-.8-2.7-.8s1.9.4 2 1.1c.1.6-1.7 1.2-3.6 1.4-1.9.2-4.5-.6-6.3-2.3-1.8-1.8-3.8-1.8-6.1-1.6-2.3.2-5 .5-5.8-2.1-.6-2.1.7-4.3.7-4.3zM14.6 34.6s14.7 9.2 15.7 13.3c0 0 1.2-3.3-5.1-7.7-6.1-4.4-10.6-5.6-10.6-5.6z"/></g><path stroke="#56CCF2" d="M.5.5H53v60.6H.5z"/><defs><clipPath id="clip0"/></defs></svg>