<svg width="62" height="70" viewBox="0 0 62 70" fill="none" xmlns="http://www.w3.org/2000/svg">
<g clip-path="url(#clip0)" filter="url(#filter0_d)">
<path d="M15.7 0C15.7 0 16.6 6.8 16.7 22.7C16.7 35.7 16.5 40.5 16.7 45.7C16.9 52.9 15.6 57.1 15.6 57.1C15.6 57.1 16 51.1 15.7 46.9C15.3 41.4 15.9 29 15.7 23.4C15.3 15.5 15.7 0 15.7 0Z" fill="#3A4561"/>
<path d="M8.2 3.1001C8.2 3.1001 1.2 12.3001 5.4 21.8001C9.5 31.0001 11.9 35.0001 8.3 40.3001C8.3 40.3001 11.1 37.6001 10.7 33.9001C10.4 30.1001 6.6 20.4001 6 14.7001C5.3 8.2001 8.2 3.1001 8.2 3.1001Z" fill="#3A4561"/>
<path d="M7.7 40.7998C7.7 40.7998 2.2 44.2998 4.7 47.4998C6.9 50.3998 11.4 49.5998 11.7 53.6998C12 57.7998 12 60.2998 16.5 61.2998C21.5 62.4998 20 59.7998 18.7 58.7998C18.7 58.7998 20.1 60.2998 19 60.8998C18.1 61.3998 14.8 60.9998 13.3 58.8998C11.5 56.3998 13.1 52.8998 11.2 50.8998C9.7 49.2998 5.8 48.3998 5.5 45.5998C5.1 42.8998 7.7 40.7998 7.7 40.7998Z" fill="#3A4561"/>
<path d="M42.7 45.2999C49.9 50.3999 52.2 54.8999 52.2 54.8999C52.2 54.8999 45.8 48.0999 42.4 46.2999C39 44.5999 27 30.8999 22.7 25.5999C20 22.2999 18.4 18.8999 18.4 18.8999C18.4 18.8999 37.1 41.3999 42.7 45.2999Z" fill="#3A4561"/>
<path d="M35.6 47.6001C35.6 47.6001 33.9 49.5001 34.2 52.1001C34.4 54.4001 35.8 55.6001 39.5 55.3001C43.2 55.0001 44.9 55.0001 46.7 56.5001C48.5 58.0001 50.1 58.5001 53 58.3001C55.1 58.1001 56.9 57.7001 57.4 57.0001C57.6 56.8001 57.7 56.4001 57.4 56.2001C56.8 55.5001 54.7 55.4001 54.7 55.4001C54.7 55.4001 56.6 55.8001 56.7 56.5001C56.8 57.1001 55 57.7001 53.1 57.9001C51.2 58.1001 48.6 57.3001 46.8 55.6001C45 53.8001 43 53.8001 40.7 54.0001C38.4 54.2001 35.7 54.5001 34.9 51.9001C34.3 49.8001 35.6 47.6001 35.6 47.6001Z" fill="#3A4561"/>
<path d="M18.6 34.6001C18.6 34.6001 33.3 43.8001 34.3 47.9001C34.3 47.9001 35.5 44.6001 29.2 40.2001C23.1 35.8001 18.6 34.6001 18.6 34.6001Z" fill="#3A4561"/>
</g>
<defs>
<filter id="filter0_d" x="0" y="0" width="61.5" height="69.6" filterUnits="userSpaceOnUse" color-interpolation-filters="sRGB">
<feFlood flood-opacity="0" result="BackgroundImageFix"/>
<feColorMatrix in="SourceAlpha" type="matrix" values="0 0 0 0 0 0 0 0 0 0 0 0 0 0 0 0 0 0 127 0"/>
<feOffset dy="4"/>
<feGaussianBlur stdDeviation="2"/>
<feColorMatrix type="matrix" values="0 0 0 0 0 0 0 0 0 0 0 0 0 0 0 0 0 0 0.25 0"/>
<feBlend mode="normal" in2="BackgroundImageFix" result="effect1_dropShadow"/>
<feBlend mode="normal" in="SourceGraphic" in2="effect1_dropShadow" result="shape"/>
</filter>
<clipPath id="clip0">
<rect width="53.5" height="61.6" fill="white" transform="translate(4)"/>
</clipPath>
</defs>
</svg>
