<svg width="50" height="62" fill="none" xmlns="http://www.w3.org/2000/svg"><g clip-path="url(#clip0)" fill="#3A4561"><path d="M29.488 0s.191 5.281 4.164 7.425c7.486 4.095 12.452-.88 16.386 5.97 0 0-2.063-2.909-5.156-3.253-3.094-.306-8.327.46-11.994-1.952-3.82-2.488-3.4-8.19-3.4-8.19zM18.64 1.416s.23 6.621-5.577 10.218C9.282 13.97 3.553 16.075 0 22.427c0 0 4.163-5.205 9.244-7.578 6.417-2.985 9.74-4.554 9.396-13.433zM19.977 46.577c-.917-4.21-4.049-11.98-14.247-21.7 0 0 15.66 17.49 11.993 24.876-.993 1.952-4.087 5.626-6.226 11.635 0 0 4.164-7.502 7.983-11.788.65-.727.764-1.646.497-3.023zM46.333 30.12s.306 9.032-.688 14.581c-.993 5.511 2.292 10.64 1.796 17.299 0 0-.688-5.97-1.834-9.262-1.146-3.291-1.757-5.166-.878-9.185.878-4.019 1.337-10.678 1.604-13.433zM27.693 35.363s5.233 8.152 1.108 18.485c0 0 2.368-8.726-1.108-18.485zM29.68 21.968s2.635 8.994 7.944 9.568c0 0-3.972 0-5.73-3.215-1.756-3.215-2.215-6.353-2.215-6.353zM20.665 21.968s-.535 5.434-2.063 7.501c-.802 1.072-1.795 1.722-3.018 1.99 0 .038 3.476-1.799 5.08-9.491z"/></g><defs><clipPath id="clip0"><path fill="#fff" d="M0 0h50v62H0z"/></clipPath></defs></svg>