<svg width="50" height="62" viewBox="0 0 50 62" fill="none" xmlns="http://www.w3.org/2000/svg">
<g clip-path="url(#clip0)">
<path d="M29.4882 0C29.4882 0 29.6791 5.28148 33.6516 7.42469C41.1383 11.5198 46.1039 6.54444 50.0382 13.3951C50.0382 13.3951 47.9755 10.4864 44.8816 10.142C41.7876 9.8358 36.5546 10.6012 32.8877 8.19012C29.068 5.70247 29.4882 0 29.4882 0Z" fill="#D77C69"/>
<path d="M18.6402 1.41602C18.6402 1.41602 18.8694 8.037 13.0634 11.6345C9.28189 13.9691 3.55233 16.074 0 22.4271C0 22.4271 4.16348 17.2222 9.2437 14.8493C15.6608 11.8642 18.984 10.295 18.6402 1.41602Z" fill="#D77C69"/>
<path d="M19.9771 46.5765C19.0603 42.3666 15.9282 34.5975 5.72955 24.8765C5.72955 24.8765 21.3904 42.3666 17.7234 49.753C16.7303 51.7049 13.6364 55.3789 11.4973 61.3876C11.4973 61.3876 15.6608 53.8863 19.4805 49.5999C20.1299 48.8728 20.2445 47.9542 19.9771 46.5765Z" fill="#D77C69"/>
<path d="M46.3331 30.1196C46.3331 30.1196 46.6386 39.1517 45.6455 44.7011C44.6524 50.2122 47.9373 55.3406 47.4408 61.9999C47.4408 61.9999 46.7532 56.0295 45.6073 52.7382C44.4614 49.4468 43.8503 47.5715 44.7288 43.553C45.6073 39.5344 46.0657 32.8752 46.3331 30.1196Z" fill="#D77C69"/>
<path d="M27.6929 35.3628C27.6929 35.3628 32.9259 43.5146 28.8006 53.848C28.8006 53.848 31.1688 45.1221 27.6929 35.3628Z" fill="#D77C69"/>
<path d="M29.6791 21.9678C29.6791 21.9678 32.3147 30.9616 37.6241 31.5357C37.6241 31.5357 33.6516 31.5357 31.8946 28.3209C30.1375 25.106 29.6791 21.9678 29.6791 21.9678Z" fill="#D77C69"/>
<path d="M20.6646 21.9678C20.6646 21.9678 20.1299 27.4023 18.602 29.469C17.7998 30.5406 16.8067 31.1912 15.5844 31.4591C15.5844 31.4974 19.0603 29.6604 20.6646 21.9678Z" fill="#D77C69"/>
</g>
<defs>
<clipPath id="clip0">
<rect width="50" height="62" fill="white"/>
</clipPath>
</defs>
</svg>
