<svg width="57" height="55" fill="none" xmlns="http://www.w3.org/2000/svg"><path d="M28.5 55C44.24 55 57 42.688 57 27.5S44.24 0 28.5 0 0 12.312 0 27.5 12.76 55 28.5 55z" fill="#D77C69"/><path d="M45.888 27.088l-7.85-6.926a.717.717 0 00-.925.014.53.53 0 000 .802l7.387 6.518-7.387 6.519a.53.53 0 000 .816c.255.225.67.225.925 0l7.85-6.926a.53.53 0 000-.817zM13.354 27.912l8.312 6.926a.794.794 0 00.98-.014.51.51 0 000-.802l-7.823-6.518 7.822-6.519a.512.512 0 000-.816.794.794 0 00-.979 0l-8.312 6.926a.512.512 0 000 .817z" fill="#fff"/></svg>