<svg width="110" height="41" fill="none" xmlns="http://www.w3.org/2000/svg"><g clip-path="url(#clip0)" fill="#D77C69"><path d="M0 17h4.9v1H1v2.3h3.6v1H1v2.4h4.1v1H0V17zM17.4 17h2.7c.5 0 .9.1 1.2.2.3.1.6.3.8.5.2.2.3.4.4.7.1.3.1.5.1.7 0 .2 0 .5-.1.7-.1.3-.2.5-.4.7-.2.2-.4.4-.8.5-.3.1-.7.2-1.2.2h-1.7v3.4h-1V17zm1 3.3h2c.2 0 .4-.1.5-.2.2-.1.3-.2.4-.4.1-.2.1-.4.1-.6 0-.3 0-.5-.1-.6-.1-.2-.2-.3-.4-.4-.2-.1-.3-.1-.5-.2h-2v2.4zM34.6 17h1v7.6h-1V17zM48.4 17h1v6.7h3.5v1h-4.5V17zM64.7 17h1.5l2.4 5.8L71 17h1.5v7.6h-1v-6.3L69 24.6h-.7l-2.6-6.3v6.3h-1V17zM85.3 17h4.9v1h-3.9v2.3H90v1h-3.6v2.4h4.1v1h-5.1V17h-.1zM102.5 17h2.7c.5 0 1 .1 1.4.2.4.1.8.3 1.1.5.3.2.5.4.7.7.2.3.4.5.5.8.1.3.2.6.2.8.1.3.1.5.1.8 0 .5-.1 1-.3 1.4-.2.4-.4.9-.8 1.2-.4.4-.8.6-1.3.9-.5.3-1.1.3-1.8.3h-2.5V17zm1.1 6.6h1.3c.4 0 .9-.1 1.2-.2.4-.1.7-.3 1-.5.3-.2.5-.5.7-.9.2-.4.3-.8.3-1.2 0-.2 0-.5-.1-.9s-.2-.6-.4-.9c-.2-.3-.5-.5-.9-.8-.4-.3-.9-.3-1.5-.3h-1.6v5.7zM34.2 11.2h-.7c0 .2-.1.3-.1.4h.8v-.4zM19.8 11.3c0-2.5 0-4.7.1-6.5.1-1.9.1-3.1.2-3.7.4-.1 1-.1 1.8-.2s1.7-.1 2.5-.1c2.5 0 4.6.1 6.3.3 1.7.2 2.9.5 3.6.8 2.7 1.3 5.5 3.9 8.6 7.7l.6-.3-4-9.3H8.4v.6c1 .2 1.8.3 2.5.5.6.2 1.2.6 1.8 1.2.2.2.4.6.5 1.1.1.5.2 1.1.3 1.7.1.6.1 1.3.1 2v4.6h6.2v-.4zM33.5 28.9h.7v-.2h-.7v.2zM13.5 29.7v2.1c0 .6 0 1.2-.1 1.8 0 .6-.1 1.2-.2 1.8-.1.6-.2 1.1-.3 1.5-.1.4-.3.8-.5 1-.5.6-1.2 1.1-2 1.4-.8.3-1.7.6-2.6.7v.6h34.5l2.8-10.8-.6-.2c-.9 1.6-1.9 3-2.7 4.1-.9 1.1-1.8 2.1-2.7 2.9-.9.8-1.9 1.4-2.9 1.8-1 .4-2.1.7-3.3.9-1.1.2-2.1.2-3.1.3-1 0-1.8.1-2.5.1-1.5 0-2.9-.1-4.2-.3-1.3-.2-2.1-.6-2.4-1.1-.3-.5-.6-1.3-.6-2.4 0-1.1-.2-2.2-.2-3.4v-1.4-1.7-.7h-6.2c-.1.4-.1.7-.2 1zM73.8 30.7l-.9-2h-6.8c.4.9.8 1.7 1.1 2.6 1.2 2.7 2.4 5.5 3.6 8.3h.3c.1-.2.3-.7.6-1.4s.6-1.5 1-2.3c.3-.8.7-1.7 1-2.5.3-.8.6-1.4.8-1.8.5-1 .9-2 1.3-3h-1.2c-.2.8-.5 1.4-.8 2.1zM53.4 33.4c-.2 1.3-.6 2.5-1.1 3.4-.5.9-1.1 1.6-2 2.1-.8.5-1.9.9-3.2 1.2v.6h14.7v-.6c-1.6-.2-2.9-.6-3.8-1.1-.9-.5-1.6-1.2-2.1-2.1-.5-.9-.7-2-.8-3.3-.1-1.3-.2-2.8-.2-4.6v-.3h-1.2c0 1.9-.1 3.4-.3 4.7zM87.4 32.8c0 .8-.1 1.5-.2 2.2-.1.7-.3 1.3-.5 1.8-.4.8-1.1 1.5-2.2 2.1-1.1.6-2.4.9-4.1 1v.6h19.4v-.6c-.9 0-1.7-.2-2.4-.4s-1.2-.5-1.7-.8c-.5-.3-.8-.6-1-.9-.2-.3-.4-.5-.4-.5-.2-.4-.4-1-.5-1.7-.1-.7-.1-1.5-.1-2.2v-4.7h-6.1c-.1 1.4-.1 2.7-.2 4.1zM84.1 10.4c1-2.3 2.2-4.9 3.4-7.7v8.8h6.1v-.9c0-1.3.1-2.7.2-4 .1-1.4.2-2.4.5-3 .3-.8.9-1.5 1.7-2.1.8-.6 2-.9 3.5-1V0h-12c-.1.3-.6 1.4-1.4 3.3-.8 1.9-1.8 4.3-3.1 7.1-.2.4-.3.8-.5 1.2h1.2c.1-.4.3-.8.4-1.2zM55 10.2V3.6c.2.4.5 1.2 1 2.4s1.2 2.6 1.9 4.3l.6 1.2h6.9L60.4 0h-12v.6c.5.1 1 .2 1.6.4.6.2 1.2.4 1.8.8.6.4 1.1.9 1.5 1.6.4.7.6 1.5.7 2.6V11.6h1v-1.4z"/></g><defs><clipPath id="clip0"><path fill="#fff" d="M0 0h109.2v40.6H0z"/></clipPath></defs></svg>