<svg width="19" height="20" fill="none" xmlns="http://www.w3.org/2000/svg"><path d="M15.98 12.878c-.687-.678-1.545-.678-2.227 0-.52.516-1.04 1.032-1.553 1.557-.14.144-.258.175-.428.079-.337-.184-.696-.333-1.02-.534-1.508-.949-2.772-2.169-3.892-3.542-.555-.682-1.05-1.412-1.395-2.234-.07-.166-.057-.276.079-.411.52-.503 1.027-1.02 1.54-1.535.712-.717.712-1.557-.005-2.278-.407-.411-.814-.814-1.22-1.225-.42-.42-.836-.844-1.26-1.26C3.912.828 3.055.828 2.373 1.5 1.848 2.016 1.345 2.545.81 3.053c-.494.467-.743 1.04-.796 1.71C-.068 5.85.2 6.878.575 7.88c.77 2.073 1.942 3.914 3.363 5.602 1.92 2.282 4.212 4.088 6.893 5.391 1.208.586 2.459 1.037 3.819 1.111.936.052 1.75-.184 2.4-.914.447-.498.95-.953 1.422-1.43.7-.708.705-1.565.01-2.265a676.92 676.92 0 00-2.503-2.497z" fill="#CFBBAA"/></svg>