<svg width="193" height="193" fill="none" xmlns="http://www.w3.org/2000/svg"><path d="M36.444 118.241l-.56-1.428-2.372 4.265-4.19-1.452.564 1.438 4.181 1.341-3.165 1.247.455 1.16 6.64-2.615-.456-1.16-2.12.835-.903-.308 1.926-3.323zM31.464 114.67c2.077-.465 3.276-2.273 2.815-4.354-.46-2.081-2.308-3.207-4.385-2.742-2.077.465-3.276 2.273-2.816 4.354.46 2.081 2.309 3.207 4.386 2.742zm-1.294-5.848c1.43-.32 2.716.342 3.024 1.737.31 1.404-.577 2.542-2.006 2.862-1.44.322-2.713-.332-3.024-1.736-.309-1.395.566-2.54 2.006-2.863zM32.639 98.271l-.068-1.245-7.117.412.067 1.246 2.913-.17.201 3.695-2.913.169.068 1.245 7.118-.412-.068-1.246-3.105.18-.201-3.694 3.105-.18zM33.137 89.784c.151-1.485-.505-2.428-1.3-3.053l-.65 1.009c.56.397.927 1.12.844 1.936-.137 1.348-1.317 2.283-2.806 2.138-1.488-.145-2.456-1.29-2.319-2.638.083-.817.6-1.453 1.219-1.736l-.434-1.114c-.905.448-1.74 1.256-1.89 2.742-.208 2.037 1.115 3.807 3.294 4.02 2.18.213 3.834-1.266 4.042-3.303zM28.173 77.355l3.574 2.744-4.546 1.062-.354 1.385 5.855-1.525c.508.469.668.795.535 1.312a1.102 1.102 0 01-.23.47l.946.568c.154-.215.303-.54.375-.82.3-1.179-.129-1.87-.875-2.486l-4.931-4.076-.349 1.365zM35.26 74.714l1.132.475c.539-1.268.51-2.427-3.48-4.497l-1.054-.547.986-2.32 5.548 2.33.489-1.15-6.56-2.755-1.894 4.453 2.024 1.047c2.87 1.484 3.11 2.256 2.81 2.964zM35.29 60.776l-.654 1.066 6.077 3.695 1.637-2.67c.782-1.275.343-2.518-.686-3.144-1.03-.626-2.346-.438-3.122.828l-.984 1.604-2.268-1.38zm3.207 1.95l.894-1.458c.368-.602 1.02-.806 1.602-.452.583.355.698 1.025.329 1.626l-.894 1.458-1.931-1.174zM46.578 56.909l.793-.967-4.658-3.8 1.37-1.67-.85-.693-3.534 4.306.85.694 1.37-1.67 4.659 3.8zM54.956 48.216l1.011-.923-6.869-3.353-1.154 1.053 2.728 7.13 1.012-.923-.534-1.359 2.498-2.278 1.308.653zm-5.722-2.972l3.412 1.748-1.976 1.802-1.436-3.55zM63.368 42.119l.723 1.092.92-.608-1.33-2.007-.732.484-3.318-5.008-1.044.69 3.318 5.01-2.918 1.93-3.317-5.01-1.044.692 3.924 5.923 4.818-3.188zM64.23 33.494l2.93 6.472 1.1-.5 1.176-6.428 2.215 4.89 1.14-.517-2.93-6.473-1.17.531-1.165 6.272-2.157-4.765-1.14.518zM74.641 29.194l1.863 6.858 1.166-.32 2.182-6.165 1.408 5.182 1.206-.33-1.863-6.859-1.237.34-2.147 6.012-1.371-5.049-1.207.33zM91.383 33.083l3.6-.132c1.334-.049 2.044-.896 2.008-1.994-.028-.874-.673-1.608-1.435-1.697.658-.163 1.215-.78 1.185-1.676-.033-1.002-.786-1.785-2.089-1.737l-3.503.128.234 7.108zm1.112-4.213l-.06-1.843 1.997-.073c.64-.024 1.017.357 1.034.89.018.533-.332.93-.973.953l-1.998.073zm.101 3.07l-.065-1.972 2.051-.075c.716-.026 1.104.408 1.122.94.02.619-.373 1.006-1.057 1.031l-2.05.075zM100.583 33.027l1.243.13.288-2.641 1.87.196c1.477.154 2.427-.776 2.557-1.974.131-1.199-.587-2.304-2.074-2.46l-3.113-.325-.771 7.074zm4.683-4.423c-.073.679-.632 1.071-1.333.998l-1.7-.178.245-2.249 1.7.178c.701.074 1.162.572 1.088 1.251zM114.123 35.413l1.325.336-.927-7.582-1.51-.384-4.496 6.204 1.325.337.849-1.194 3.27.831.164 1.452zm-.622-6.414l.392 3.81-2.587-.657L113.501 29zM121.475 32.538l.789-1.858-1.151-.483-.789 1.858c-.718 1.691-.367 2.638 1.099 3.253a5.086 5.086 0 001.887.387l-1.135 2.674 1.151.483 2.784-6.558-1.151-.483-1.261 2.97a4.135 4.135 0 01-1.471-.329c-.984-.412-1.182-.901-.752-1.914zM126.871 40.645l4.182 2.5.569-.943-3.112-1.86 1.02-1.693 3.048 1.821.569-.942-3.048-1.822.954-1.584 3.112 1.86.568-.943-4.182-2.5-3.68 6.106zM141.522 41.32a2.307 2.307 0 002.041.457l-.151-.788c-.481.131-.982.052-1.386-.28-.412-.338-.578-.806-.549-1.309l-.805.003c-.03.723.266 1.436.85 1.916zm-2.748-1.51l-4.542 5.499.931.764 6.298-1.801-3.432 4.155.964.791 4.542-5.499-.988-.812-6.153 1.742 3.344-4.048-.964-.791zM155.106 72.29l.613 1.405 2.212-4.349 4.241 1.297-.617-1.416-4.228-1.187 3.118-1.362-.498-1.142-6.539 2.857.498 1.142 2.088-.912.913.275-1.801 3.391zM160.215 75.674c-2.059.541-3.19 2.392-2.653 4.454.536 2.062 2.425 3.12 4.484 2.578 2.058-.54 3.19-2.391 2.653-4.453-.537-2.063-2.426-3.12-4.484-2.579zm1.509 5.795c-1.418.372-2.727-.242-3.087-1.624-.362-1.392.483-2.561 1.9-2.934 1.428-.375 2.724.232 3.086 1.624.36 1.382-.472 2.559-1.899 2.934zM159.646 92.102l.114 1.242 7.098-.674-.113-1.242-2.906.276-.337-3.683 2.905-.276-.113-1.242-7.099.674.114 1.242 3.097-.294.337 3.683-3.097.294zM159.462 100.6c-.096 1.491.594 2.409 1.412 3.003l.613-1.031c-.576-.377-.969-1.085-.916-1.904.088-1.352 1.232-2.33 2.725-2.24 1.494.091 2.503 1.2 2.416 2.551a2.144 2.144 0 01-1.154 1.779l.475 1.097c.888-.48 1.691-1.318 1.788-2.808.132-2.044-1.256-3.763-3.442-3.896-2.186-.132-3.785 1.406-3.917 3.449zM164.882 112.838l-3.674-2.612 4.505-1.227.302-1.398-5.795 1.74c-.525-.45-.696-.77-.583-1.291.04-.188.11-.359.212-.479l-.966-.532c-.146.22-.283.551-.344.833-.257 1.189.197 1.863.966 2.452l5.079 3.891.298-1.377zM157.896 115.736l-1.148-.433c-.492 1.287-.42 2.444 3.643 4.365l1.074.508-.9 2.355-5.631-2.125-.446 1.167 6.659 2.513 1.728-4.519-2.062-.972c-2.923-1.377-3.191-2.14-2.917-2.859zM158.382 129.665l.613-1.09-6.209-3.468-1.538 2.727c-.734 1.304-.25 2.529.802 3.117 1.052.587 2.36.351 3.09-.943l.923-1.638 2.319 1.295zm-3.278-1.831l-.839 1.49c-.346.614-.989.842-1.585.51-.596-.333-.735-.998-.389-1.613l.84-1.489 1.973 1.102zM147.243 133.943l-.758.996 4.796 3.625-1.308 1.719.876.662 3.373-4.434-.876-.662-1.307 1.719-4.796-3.625zM139.19 142.937l-.977.959 6.989 3.098 1.115-1.094-2.99-7.024-.977.959.583 1.339-2.411 2.367-1.332-.604zm5.829 2.759l-3.475-1.62 1.908-1.874 1.567 3.494zM131.008 149.338l-.763-1.064-.897.641 1.403 1.956.714-.51 3.501 4.882 1.017-.728-3.5-4.883 2.844-2.036 3.501 4.883 1.018-.729-4.14-5.774-4.698 3.362zM130.466 157.988l-3.168-6.359-1.082.54-.938 6.467-2.394-4.806-1.12.559 3.168 6.36 1.149-.573.932-6.31 2.332 4.681 1.121-.559zM120.218 162.668l-2.115-6.784-1.154.362-1.953 6.24-1.598-5.126-1.194.375 2.115 6.784 1.225-.384 1.923-6.087 1.557 4.994 1.194-.374zM103.342 159.398l-3.593.264c-1.333.098-2.011.97-1.934 2.066.06.872.732 1.582 1.497 1.643-.651.187-1.185.825-1.123 1.718.07 1 .852 1.755 2.152 1.659l3.497-.257-.496-7.093zm-.957 4.249l.129 1.84-1.993.147c-.64.047-1.03-.32-1.067-.852-.037-.532.298-.941.938-.988l1.993-.147zm-.214-3.062l.138 1.967-2.047.15c-.714.053-1.119-.366-1.156-.898-.043-.617.336-1.019 1.018-1.069l2.047-.15zM94.148 159.792l-1.247-.084-.19 2.649-1.876-.127c-1.482-.1-2.397.864-2.483 2.067-.086 1.202.672 2.279 2.164 2.38l3.124.211.508-7.096zm-4.517 4.591c.049-.681.593-1.093 1.296-1.046l1.706.116-.162 2.255-1.706-.115c-.703-.048-1.183-.529-1.134-1.21zM80.527 157.906l-1.336-.288 1.206 7.542 1.524.328 4.264-6.364-1.336-.288-.805 1.224-3.298-.71-.219-1.444zm.86 6.386l-.533-3.794 2.61.562-2.078 3.232zM73.286 161.048l-.72 1.886 1.168.44.72-1.885c.656-1.717.27-2.65-1.218-3.21a5.074 5.074 0 00-1.9-.317l1.035-2.714-1.168-.44-2.541 6.654 1.168.441 1.15-3.013c.437-.007.965.078 1.484.273.998.377 1.215.858.822 1.885zM67.594 153.147l-4.273-2.344-.533.963 3.179 1.744-.958 1.729-3.113-1.708-.534.963 3.114 1.708-.896 1.618-3.178-1.744-.534.962 4.273 2.345 3.453-6.236zM52.925 153.012a2.307 2.307 0 00-2.056-.383l.18.782c.475-.148.98-.087 1.395.229.424.323.607.784.598 1.288l.804-.033a2.341 2.341 0 00-.921-1.883zm2.802 1.407l4.337-5.662-.959-.729-6.228 2.032 3.277-4.278-.993-.756-4.336 5.662 1.018.774 6.084-1.966-3.192 4.168.992.755z" fill="#D77C69"/><circle cx="96.61" cy="96.5" r="52" stroke="#D77C69"/><circle cx="150.61" cy="54.5" r="1.5" fill="#D77C69"/><circle cx="42.61" cy="137.5" r="1.5" fill="#D77C69"/></svg>